Coordinates
version=1
nRows=12
nColumns=46
inDegrees=yes

Units are S.I. units (second, meters, Newtons, ...)
Angles are in degrees.

endheader
time	pelvis_tilt	pelvis_list	pelvis_rotation	pelvis_tx	pelvis_ty	pelvis_tz	bb_angle	bb_tx	bb_ty	bb_tz	hip_flexion_r	hip_adduction_r	hip_rotation_r	knee_angle_r	knee_angle_r_beta	ankle_angle_r	subtalar_angle_r	mtp_angle_r	crank_angle_r	hip_flexion_l	hip_adduction_l	hip_rotation_l	knee_angle_l	knee_angle_l_beta	ankle_angle_l	subtalar_angle_l	mtp_angle_l	crank_angle_l	lumbar_extension	lumbar_bending	lumbar_rotation	arm_flex_r	arm_add_r	arm_rot_r	elbow_flex_r	pro_sup_r	wrist_flex_r	wrist_dev_r	arm_flex_l	arm_add_l	arm_rot_l	elbow_flex_l	pro_sup_l	wrist_flex_l	wrist_dev_l
      5.00500000	    -19.98614739	     -0.40453487	     -7.02531681	      0.18315683	      1.04470413	     -0.22393343	      0.00000000	      0.50000000	      0.00000000	      0.25000000	     64.13213196	     -0.16701899	      1.10104429	     55.37180504	      0.96642031	     -0.08545752	     -3.66244477	      0.00000000	      0.00000000	     64.24765599	     -9.46459305	     -0.87029295	    100.52023481	      1.75440906	     -6.83153352	    -18.97830576	      0.00000000	      0.00000000	    -63.79671166	     -1.86313064	      0.07449531	     78.36157769	    -17.92905223	     32.62208111	     88.23896880	     52.17750795	      0.00000000	      0.00000000	     66.14374993	    -27.55468026	     16.04972226	     97.90540812	     51.54422707	      0.00000000	      0.00000000
      5.01000000	    -19.66848562	     -0.16290523	     -6.88113777	      0.18379941	      1.04592516	     -0.22297614	      0.00000000	      0.50000000	      0.00000000	      0.25000000	     61.85001879	     -0.45032799	      1.07417131	     52.41178097	      0.91475814	     -1.33625951	     -3.39422370	      0.00000000	      0.00000000	     65.15396211	     -9.31712194	     -0.63597511	    102.39265362	      1.78708894	     -6.18060216	    -18.46428085	      0.00000000	      0.00000000	    -64.00122678	     -2.17033533	     -0.25199636	     78.09134778	    -17.78568030	     32.25279724	     88.02545165	     52.08705533	      0.00000000	      0.00000000	     66.62519957	    -27.63029335	     16.60759614	     97.45518096	     51.51251432	      0.00000000	      0.00000000
      5.01500000	    -19.51805643	      0.18547524	     -6.63667283	      0.18443044	      1.04684349	     -0.22189682	      0.00000000	      0.50000000	      0.00000000	      0.25000000	     59.75160026	     -0.86393378	      1.04137626	     49.48193406	      0.86362267	     -2.61721660	     -3.18686531	      0.00000000	      0.00000000	     66.29942889	     -9.08686691	     -0.48890507	    104.18446048	      1.81836186	     -5.55343980	    -17.86967454	      0.00000000	      0.00000000	    -64.03658247	     -2.47701621	     -0.68916152	     77.65505764	    -17.57256290	     31.75951128	     87.78129215	     51.99402061	      0.00000000	      0.00000000	     67.20371922	    -27.78365191	     17.42354750	     96.90826544	     51.50244961	      0.00000000	      0.00000000
      5.02000000	    -19.56238596	      0.63162253	     -6.33486579	      0.18489538	      1.04753891	     -0.22100421	      0.00000000	      0.50000000	      0.00000000	      0.25000000	     57.87542474	     -1.36526765	      1.13561513	     46.58821252	      0.81311770	     -3.89375164	     -2.62410181	      0.00000000	      0.00000000	     67.69707721	     -8.70607912	     -0.38283521	    105.86663646	      1.84772137	     -5.13491031	    -17.65778389	      0.00000000	      0.00000000	    -63.86683574	     -2.77138587	     -1.32351920	     77.15455097	    -17.48851510	     31.54711875	     87.67130902	     51.94514775	      0.00000000	      0.00000000	     67.45457352	    -27.82948208	     17.78168904	     96.67330267	     51.48749098	      0.00000000	      0.00000000
      5.02500000	    -19.62356573	      0.81312401	     -5.71234868	      0.18555293	      1.04821477	     -0.22059706	      0.00000000	      0.50000000	      0.00000000	      0.25000000	     55.92354109	     -1.95861412	      0.75986952	     43.73408500	      0.76330378	     -5.28916910	     -2.48954818	      0.00000000	      0.00000000	     69.24483184	     -8.17724691	      0.11269107	    107.54193955	      1.87696093	     -4.63240652	    -17.18444150	      0.00000000	      0.00000000	    -63.74846873	     -2.63816066	     -1.83470084	     76.67059401	    -17.16918443	     30.96069513	     87.50955793	     51.81937865	      0.00000000	      0.00000000	     67.88184757	    -27.96526170	     18.41074937	     96.34071454	     51.45828572	      0.00000000	      0.00000000
      5.03000000	    -19.90167315	      1.32594256	     -5.08706751	      0.18616044	      1.04866477	     -0.22047889	      0.00000000	      0.50000000	      0.00000000	      0.25000000	     54.32700247	     -2.80969403	      0.62295134	     41.05684987	      0.71657721	     -6.37806406	     -1.88971739	      0.00000000	      0.00000000	     70.96106038	     -7.41863305	      0.22221078	    109.04990558	      1.90327990	     -3.98146304	    -17.35224517	      0.00000000	      0.00000000	    -63.41509863	     -2.71022533	     -2.68393763	     76.22752442	    -17.18861343	     30.78573741	     87.40009487	     51.77731442	      0.00000000	      0.00000000	     68.06964514	    -27.91617341	     18.68040218	     96.22258506	     51.45367260	      0.00000000	      0.00000000
      5.03500000	    -20.07769942	      1.34499390	     -4.29148152	      0.18661090	      1.04939808	     -0.22064710	      0.00000000	      0.50000000	      0.00000000	      0.25000000	     52.52227999	     -3.40761242	     -0.07657434	     38.33300969	      0.66903723	     -8.28267798	     -1.96771986	      0.00000000	      0.00000000	     72.73644471	     -6.70057621	      0.88671574	    110.52525221	      1.92902956	     -3.68520884	    -16.97599825	      0.00000000	      0.00000000	    -63.20750238	     -2.32363792	     -3.18689194	     75.60416652	    -16.44969634	     29.73138683	     86.87782574	     51.63615281	      0.00000000	      0.00000000	     68.77372783	    -28.45886664	     20.06612634	     95.67436449	     51.53758789	      0.00000000	      0.00000000
      5.04000000	    -20.42729426	      1.81843880	     -3.52310026	      0.18705767	      1.04991652	     -0.22085709	      0.00000000	      0.50000000	      0.00000000	      0.25000000	     51.13336946	     -4.33908173	     -0.44729815	     35.99540125	      0.62823827	     -9.55293299	     -1.31228371	      0.00000000	      0.00000000	     74.59269976	     -5.80112150	      0.94588677	    111.77220822	      1.95079305	     -3.47453697	    -16.92286283	      0.00000000	      0.00000000	    -62.85597498	     -2.20896257	     -4.02156964	     75.21892112	    -16.49177630	     29.60758685	     86.80583265	     51.61647212	      0.00000000	      0.00000000	     68.97513157	    -28.37995751	     20.22200409	     95.64419839	     51.54382786	      0.00000000	      0.00000000
      5.04500000	    -20.64637215	      1.91354459	     -2.74151780	      0.18737814	      1.05076421	     -0.22094680	      0.00000000	      0.50000000	      0.00000000	      0.25000000	     49.56795594	     -4.96227436	     -1.20668766	     33.67827168	      0.58779673	    -11.37209851	     -1.19490786	      0.00000000	      0.00000000	     76.41289001	     -5.07075196	      1.38937971	    112.97212131	      1.97173548	     -3.38495670	    -16.58813882	      0.00000000	      0.00000000	    -62.68331994	     -1.90122610	     -4.56848284	     74.78821479	    -16.14672165	     28.98724059	     86.64065030	     51.54934405	      0.00000000	      0.00000000	     69.28833079	    -28.54009698	     20.80444709	     95.49227556	     51.58768611	      0.00000000	      0.00000000
      5.05000000	    -20.87651001	      2.33728165	     -2.29784993	      0.18774646	      1.05182274	     -0.22002304	      0.00000000	      0.50000000	      0.00000000	      0.25000000	     48.22899946	     -5.49776724	     -1.31279448	     31.67211658	      0.55278272	    -12.87357821	     -0.66889378	      0.00000000	      0.00000000	     78.07169193	     -4.66929625	      1.30931107	    113.94997575	      1.98880226	     -3.16963897	    -16.50090415	      0.00000000	      0.00000000	    -62.50531820	     -2.12581171	     -5.25190093	     74.46668493	    -16.10897368	     28.82443555	     86.50613889	     51.51876492	      0.00000000	      0.00000000	     69.56850221	    -28.46417262	     20.96501739	     95.48306726	     51.59973510	      0.00000000	      0.00000000
      5.05500000	    -21.58297057	      2.65772294	     -1.21788685	      0.18757028	      1.05142310	     -0.22192810	      0.00000000	      0.50000000	      0.00000000	      0.25000000	     47.50455382	     -6.60685896	     -2.06116352	     29.96678787	      0.52301911	    -14.43232685	     -0.29096799	      0.00000000	      0.00000000	     80.46388945	     -3.28807192	      1.47802302	    114.94313277	      2.00613612	     -2.81888317	    -16.60133824	      0.00000000	      0.00000000	    -61.80584377	     -1.59922087	     -6.07266206	     74.18526961	    -16.16173183	     28.53543425	     86.34594594	     51.46984424	      0.00000000	      0.00000000	     69.68930289	    -28.32756681	     21.23018177	     95.49702880	     51.62681348	      0.00000000	      0.00000000
      5.06000000	    -22.34230820	      2.80596241	     -0.57883668	      0.18688931	      1.05069091	     -0.22255661	      0.00000000	      0.50000000	      0.00000000	      0.25000000	     47.13776325	     -7.15922800	     -2.63619797	     28.72022792	      0.50126254	    -16.24343788	     -0.44425343	      0.00000000	      0.00000000	     82.98285775	     -2.52934312	      1.69385778	    115.85650112	      2.02207740	     -3.20214811	    -16.66785184	      0.00000000	      0.00000000	    -60.89399515	     -1.34887804	     -6.52384016	     73.58554508	    -15.73497321	     27.88178581	     85.99494184	     51.38245650	      0.00000000	      0.00000000	     69.49040445	    -28.43666473	     21.77201674	     95.46593390	     51.69929819	      0.00000000	      0.00000000
